{"accessors" : [{"bufferView" : 0, "byteOffset" : 0, "componentType" : 5123, "count" : 34548, "type" : "SCALAR", "max" : [6674], "min" : [0]}, {"bufferView" : 1, "byteOffset" : 0, "componentType" : 5126, "count" : 6675, "type" : "VEC3", "max" : [0.11043199896812439, 0.2183849960565567, 0.11070500314235687], "min" : [-0.11043199896812439, 0.004815000109374523, -0.11070500314235687], "name" : "POSITION"}, {"bufferView" : 1, "byteOffset" : 12, "componentType" : 5126, "count" : 6675, "type" : "VEC2", "max" : [0.9772629737854004, 0.9606289863586426], "min" : [0.022738000378012657, 0.566989004611969], "name" : "TEXCOORD_0"}, {"bufferView" : 1, "byteOffset" : 20, "componentType" : 5126, "count" : 6675, "type" : "VEC3", "max" : [0.9997711181640625, 0.9998962879180908, 1.0000044107437134], "min" : [-0.9997711181640625, -0.9998963475227356, -1.0000044107437134], "name" : "NORMAL"}, {"bufferView" : 0, "byteOffset" : 69096, "componentType" : 5123, "count" : 11532, "type" : "SCALAR", "max" : [2550], "min" : [0]}, {"bufferView" : 2, "byteOffset" : 0, "componentType" : 5126, "count" : 2551, "type" : "VEC3", "max" : [0.10914599895477295, 0.2226320058107376, 0.10577800124883652], "min" : [-0.10914599895477295, 0.0005680000176653266, -0.10577800124883652], "name" : "POSITION"}, {"bufferView" : 2, "byteOffset" : 12, "componentType" : 5126, "count" : 2551, "type" : "VEC2", "max" : [1, 1], "min" : [0, 0.5276179909706116], "name" : "TEXCOORD_0"}, {"bufferView" : 2, "byteOffset" : 20, "componentType" : 5126, "count" : 2551, "type" : "VEC3", "max" : [0.9999359846115112, 1.0000044107437134, 1.0000042915344238], "min" : [-0.9999359846115112, -1.0000044107437134, -1.0000042915344238], "name" : "NORMAL"}], "asset" : {"generator" : "Aspose.3D 24.4.1", "version" : "2.0"}, "buffers" : [{"uri" : "data:application/octet-stream;base64,", "byteLength" : 387404}], "bufferViews" : [{"buffer" : 0, "byteOffset" : 0, "byteLength" : 92160, "target" : 34963}, {"buffer" : 0, "byteOffset" : 92164, "byteLength" : 213600, "byteStride" : 32, "target" : 34962}, {"buffer" : 0, "byteOffset" : 305768, "byteLength" : 81632, "byteStride" : 32, "target" : 34962}], "meshes" : [{"primitives" : [{"attributes" : {"POSITION" : 1, "TEXCOORD_0" : 2, "NORMAL" : 3}, "indices" : 0, "mode" : 4}, {"attributes" : {"POSITION" : 5, "TEXCOORD_0" : 6, "NORMAL" : 7}, "indices" : 4, "mode" : 4}], "name" : ""}], "nodes" : [{"mesh" : 0, "name" : "Football_ball_Icosphere.001"}], "scene" : 0, "scenes" : [{"nodes" : [0]}]}